# xmcd CD database file
#
# Track frame offsets:
#	150
#	25536
#	63281
#	98437
#	109322
#	128213
#	145533
#	159287
#	174578
#	190121
#	206113
#	224918
#	242876
#	259635
#
# Disc length: 3758 seconds
#
# Revision: 0
# Processed by: cddbd v1.5.2PL0 Copyright (c) Steve Scherf et al.
# Submitted via: CDex 1.70beta2
#
DISCID=c20eac0e
DTITLE=Harper John - China Blue
DYEAR=1900
DGENRE=Blues
TTITLE0=If Ya 
TTITLE1=The Harder You Work
TTITLE2=Only Stepped Out For A Beer
TTITLE3=Black Bottom
TTITLE4=Lapsap Blues
TTITLE5=Joan That's Bugging You
TTITLE6=Night Shift Blues
TTITLE7=Cockfighting In the Philippines
TTITLE8=Land Of Sin
TTITLE9=Good Woman Blues
TTITLE10=Pinatubo Blues
TTITLE11=Next Time
TTITLE12=Epsi Rop
TTITLE13=When I Was A Young Man
EXTD=
EXTT0=
EXTT1=
EXTT2=
EXTT3=
EXTT4=
EXTT5=
EXTT6=
EXTT7=
EXTT8=
EXTT9=
EXTT10=
EXTT11=
EXTT12=
EXTT13=
PLAYORDER=
